PathFileType	4	(X/Y/Z)	6_coords_data.trc
DataRate	CameraRate	NumFrames	NumMarkers	Units	OrigDataRate	OrigDataStartFrame	OrigNumFrames
30.0	30.0	9	21	m	30.0	38	66
Frame#	Time	THUMB_TIP	THUMB_IP	THUMB_MCP	THUMB_CMC	INDEX_TIP	INDEX_DIP	INDEX_PIP	INDEX_MCP	MIDDLE_TIP	MIDDLE_DIP	MIDDLE_PIP	MIDDLE_MCP	RING_TIP	RING_DIP	RING_PIP	RING_MCP	PINKY_TIP	PINKY_DIP	PINKY_PIP	PINKY_MCP	WRIST
X1	Y1	Z1	X2	Y2	Z2	X3	Y3	Z3	X4	Y4	Z4	X5	Y5	Z5	X6	Y6	Z6	X7	Y7	Z7	X8	Y8	Z8	X9	Y9	Z9	X10	Y10	Z10	X11	Y11	Z11	X12	Y12	Z12	X13	Y13	Z13	X14	Y14	Z14	X15	Y15	Z15	X16	Y16	Z16	X17	Y17	Z17	X18	Y18	Z18	X19	Y19	Z19	X20	Y20	Z20	X21	Y21	Z21
37	1.2333333333333334	0.06213180160522461	-0.04133639907836914	1.0064099731445313	0.046498199462890626	-0.053246299743652345	1.022219970703125	0.022803699493408203	-0.05921799850463867	1.04443994140625	0.00414645004272461	-0.03448970031738281	1.0570400390625	0.028511199951171875	-0.050799701690673826	1.0164000244140625	0.03594440078735352	-0.05375820159912109	0.9956530151367188	0.020184000015258788	-0.06026020050048828	0.9774099731445313	-0.013623100280761719	-0.05902259826660156	1.0002899780273438	0.026878599166870118	-0.03689519882202148	1.0187100219726561	0.03662680053710937	-0.0347781982421875	0.9995659790039062	0.022029499053955078	-0.036102298736572266	0.97414501953125	-0.019239999771118163	-0.03581949996948242	0.9919409790039062	0.022661399841308594	-0.020066499710083008	1.0248399658203124	0.032727798461914065	-0.017682600021362304	1.0078499755859376	0.02321890068054199	-0.01455210018157959	0.981655029296875	-0.01723710060119629	-0.011603199958801269	0.9944390258789062	0.01986440086364746	-0.004082109928131103	1.02097998046875	0.028141599655151367	0.000500598013401031	1.005510009765625	0.017876399993896484	0.0070691099166870115	0.9903070068359375	-0.01112969970703125	0.008737759590148926	1.0030399780273438	-0.02879599952697754	-0.012418399810791016	1.075260009765625
38	1.2666666666666666	0.06622260284423828	-0.04846979904174804	1.0059600219726563	0.04745399856567383	-0.056070899963378905	1.0230499877929689	0.02311210060119629	-0.0592484016418457	1.0437099609375	0.00373727011680603	-0.03399580001831055	1.0565799560546876	0.04077690124511719	-0.04904309844970703	1.00852001953125	0.039003299713134765	-0.05321030044555664	0.9873939819335937	0.01897330093383789	-0.059462501525878904	0.9736019897460938	-0.012163999557495118	-0.05787020111083984	1.0003499755859375	0.03562379837036133	-0.03480730056762695	1.0114299926757813	0.04056969833374023	-0.033227298736572264	0.9905260009765625	0.020364999771118164	-0.034780200958251954	0.9693480224609375	-0.01878140068054199	-0.03449860000610352	0.9920789794921875	0.0324452018737793	-0.018369699478149416	1.0166900024414063	0.03772460174560547	-0.015678299903869628	0.99810302734375	0.02121030044555664	-0.012566900253295899	0.9755189819335938	-0.017161699295043947	-0.010391400337219239	0.9948939819335938	0.026626899719238283	-0.001830770015716552	1.014280029296875	0.029104799270629884	0.00465477991104126	0.9978660278320313	0.015193599700927735	0.010784600257873535	0.9862059936523437	-0.0110693998336792	0.010038399696350097	1.0028800048828126	-0.028600299835205078	-0.012092599868774414	1.0755400390625
39	1.3	0.06910430145263671	-0.05535369873046875	1.006780029296875	0.04862710189819336	-0.057659698486328126	1.02377001953125	0.023413400650024414	-0.058937301635742186	1.04406005859375	0.0035004100799560537	-0.03361999893188477	1.056510009765625	0.05195690155029297	-0.04868170166015625	0.9948319702148437	0.040735801696777346	-0.05342729949951172	0.9783779907226563	0.018160499572753907	-0.05928290176391601	0.9706190185546875	-0.010309700012207032	-0.05662929916381836	1.0007899780273437	0.04817219924926758	-0.03262749862670898	1.0001199951171875	0.04409080123901367	-0.031952699661254885	0.979552978515625	0.018322999954223634	-0.03370880126953125	0.9646840209960937	-0.01760460090637207	-0.033124000549316406	0.9928209838867188	0.04595529937744141	-0.01626420021057129	1.006239990234375	0.04299359893798828	-0.013090800285339356	0.9869089965820312	0.01943440055847168	-0.010163000106811523	0.9704039916992188	-0.016003400802612304	-0.00932168960571289	0.9953759765625	0.03375979995727539	0.001809769988059997	1.0071599731445313	0.029732500076293945	0.009195810317993163	0.9917420043945312	0.013092300415039063	0.014436300277709962	0.98372900390625	-0.010567299842834473	0.011528599739074706	1.0034000244140624	-0.02898859977722168	-0.01176360034942627	1.07575
40	1.3333333333333333	0.07073619842529297	-0.06336209869384765	1.0081699829101562	0.04868230056762695	-0.06025400161743164	1.0248699951171876	0.02367490005493164	-0.05899430084228516	1.0445	0.003243240118026733	-0.032923301696777346	1.0568399658203125	0.05820159912109375	-0.04907809829711914	0.980531982421875	0.041624000549316406	-0.05424179840087891	0.969823974609375	0.01742580032348633	-0.05934489822387695	0.9683579711914062	-0.00834412956237793	-0.055572399139404295	1.0010900268554688	0.05846139907836914	-0.030593000411987304	0.9846099853515625	0.0454828987121582	-0.03085499954223633	0.9674730224609375	0.016544599533081055	-0.03277310180664063	0.9608489990234375	-0.015823599815368652	-0.03198439979553223	0.9934149780273438	0.05753499984741211	-0.01275409984588623	0.990239990234375	0.04578329849243164	-0.009775830268859862	0.974302001953125	0.017681400299072267	-0.007741260051727295	0.96643701171875	-0.014182700157165527	-0.00840172004699707	0.9962750244140625	0.04008010101318359	0.0067388200759887695	0.9996329956054687	0.030335599899291993	0.014106800079345703	0.9866110229492188	0.011907999992370605	0.017794500350952147	0.9825180053710938	-0.009727700233459473	0.012565999984741212	1.0040700073242188	-0.02930579948425293	-0.011456700325012207	1.07581005859375
41	1.3666666666666667	0.07079669952392578	-0.0696041030883789	1.0090700073242187	0.048827499389648435	-0.06170980072021484	1.0249599609375	0.023563499450683593	-0.058438201904296876	1.044780029296875	0.003359250068664551	-0.03187150001525879	1.056699951171875	0.06070280075073242	-0.04994189834594726	0.9700239868164062	0.04135499954223633	-0.055115100860595706	0.964239013671875	0.01717770004272461	-0.05919900131225586	0.9675479736328125	-0.006983550071716309	-0.0545453987121582	1.0013699951171875	0.06320040130615234	-0.02918589973449707	0.9695339965820312	0.044266101837158206	-0.030132699966430664	0.9583079833984375	0.014675100326538086	-0.03211750030517578	0.9585689697265625	-0.014363200187683105	-0.0311643009185791	0.99356201171875	0.06184609985351563	-0.009417460441589356	0.9739669799804688	0.044438098907470705	-0.007052619934082031	0.9636290283203125	0.015202500343322755	-0.0061490597724914555	0.9636329956054688	-0.01303719997406006	-0.007775929927825928	0.9966209716796876	0.04346099853515625	0.011737600326538086	0.9913209838867187	0.02990999984741211	0.018031099319458007	0.98235302734375	0.010546099662780762	0.020216800689697265	0.9816220092773438	-0.008778429985046387	0.013245699882507324	1.0042000122070311	-0.029530099868774414	-0.010990099906921387	1.07568994140625
42	1.4	0.07001280212402344	-0.07384619903564453	1.0094400024414063	0.0489906005859375	-0.06216299819946289	1.0245400390625	0.023597999572753905	-0.05763909912109375	1.0445799560546876	0.003526870012283325	-0.031060400009155272	1.056489990234375	0.0612400016784668	-0.0512219009399414	0.9609310302734375	0.04066019821166992	-0.0558031005859375	0.9598770141601562	0.0173174991607666	-0.05885860061645508	0.96672998046875	-0.005617030143737793	-0.05360060119628906	1.0012999877929687	0.06443550109863282	-0.027938800811767577	0.9565349731445313	0.04255089950561523	-0.029308799743652345	0.9516090087890625	0.013192500114440918	-0.03134199905395508	0.95727197265625	-0.01323390007019043	-0.03022719955444336	0.9938259887695312	0.062276901245117186	-0.005910419940948487	0.9595919799804687	0.041965999603271485	-0.004459670066833496	0.9559539794921875	0.013373900413513183	-0.004503630161285401	0.96231201171875	-0.012147500038146972	-0.007022630214691162	0.99664697265625	0.04474430084228516	0.01631399917602539	0.9849229736328124	0.028500600814819334	0.02138559913635254	0.9790700073242188	0.009198699951171875	0.022137699127197267	0.9812160034179688	-0.008299079895019532	0.013866299629211426	1.0043499755859375	-0.029847999572753907	-0.010696399688720703	1.07572998046875
43	1.4333333333333333	0.06951860046386718	-0.07590260314941406	1.0098699951171874	0.049515701293945315	-0.061784400939941406	1.0244000244140625	0.024223300933837892	-0.056585498809814457	1.04456005859375	0.0038289799690246584	-0.030145999908447265	1.05647998046875	0.06102629852294922	-0.052064399719238284	0.9536220092773438	0.04010060119628906	-0.055839801788330076	0.9564310302734375	0.017513799667358398	-0.05805020141601563	0.966552001953125	-0.004151740074157715	-0.052612098693847656	1.001239990234375	0.06358309936523437	-0.02628770065307617	0.9465280151367188	0.04078079986572265	-0.027945600509643554	0.946281982421875	0.012452799797058106	-0.03010659980773926	0.9564290161132812	-0.011665900230407715	-0.029299299240112306	0.9940130004882812	0.060630699157714844	-0.001681660056114196	0.94931298828125	0.039503700256347654	-0.001202379941940307	0.9509650268554688	0.012651000022888183	-0.0024227900505065917	0.9619869995117187	-0.011018799781799317	-0.0062255702018737796	0.9974970092773437	0.04552209854125976	0.020627199172973634	0.9799710083007812	0.027846500396728514	0.02431879997253418	0.9773820190429687	0.009102959632873536	0.02379439926147461	0.9816810302734374	-0.0073316597938537596	0.014493800163269044	1.0050700073242187	-0.03012100028991699	-0.010479700088500977	1.075780029296875
44	1.4666666666666666	0.06914820098876953	-0.07712560272216797	1.010469970703125	0.050143600463867184	-0.06133499908447266	1.0243399658203125	0.024766899108886718	-0.05565090179443359	1.044489990234375	0.0041087398529052735	-0.02925250053405762	1.0566600341796875	0.059861301422119144	-0.052755298614501955	0.9483200073242187	0.03922710037231445	-0.05584650039672852	0.9541099853515626	0.017851499557495116	-0.05748970031738281	0.9663350219726563	-0.002884170055389404	-0.051792098999023435	1.0016199951171876	0.061735401153564455	-0.025103700637817382	0.9387990112304687	0.03889400100708008	-0.02698349952697754	0.9426259765625	0.011810999870300293	-0.029173500061035158	0.9558159790039062	-0.01066189956665039	-0.028510099411010743	0.9944869995117187	0.05789699935913086	0.0017427300214767451	0.9416380004882813	0.03706880187988281	0.0012550200223922729	0.9473720092773438	0.011979999542236329	-0.000817903995513916	0.9617260131835937	-0.010034799575805664	-0.005578000068664551	0.9978920288085937	0.04549250030517578	0.02429129981994629	0.976030029296875	0.027239999771118163	0.02666790008544922	0.9759110107421874	0.008918789863586426	0.025104000091552735	0.9820289916992188	-0.0066873798370361325	0.01505370044708252	1.005489990234375	-0.030122400283813477	-0.010077400207519531	1.075739990234375
45	1.5	0.06845580291748046	-0.07815609741210937	1.0108300170898437	0.05014810180664062	-0.061432498931884766	1.024219970703125	0.02470949935913086	-0.05518170166015625	1.04468994140625	0.0041089200973510745	-0.028840700149536134	1.0566800537109375	0.05788399887084961	-0.053921600341796876	0.9442249755859375	0.03786159896850586	-0.05633750152587891	0.9522039794921875	0.01748500061035156	-0.05729380035400391	0.9661530151367187	-0.002202579975128174	-0.05111220169067383	1.0018099975585937	0.05820489883422852	-0.024626199722290038	0.9312030029296875	0.036049598693847655	-0.026611900329589842	0.939156982421875	0.010549599647521973	-0.028721200942993165	0.9555260009765625	-0.009952230453491211	-0.027891000747680663	0.9947080078125	0.05331610107421875	0.003985559940338134	0.9339229736328125	0.0335531005859375	0.0026758100986480713	0.9438930053710938	0.010633999824523926	3.5296700894832e-05	0.9612069702148438	-0.009202219963073731	-0.005106019973754883	0.9982260131835937	0.04390779876708984	0.027504600524902344	0.9713690185546875	0.02557419967651367	0.028590700149536134	0.9739920043945313	0.008255809783935546	0.026106700897216797	0.98197900390625	-0.006052149772644043	0.015453100204467773	1.0058599853515624	-0.030164100646972655	-0.009854840278625489	1.0759300537109375
